<svg xmlns="http://www.w3.org/2000/svg" xmlns:xlink="http://www.w3.org/1999/xlink" width="500" zoomAndPan="magnify" viewBox="0 0 375 374.999991" height="500" preserveAspectRatio="xMidYMid meet" version="1.0"><defs><g/><clipPath id="b7e5399e20"><path d="M 0 0 L 375 0 L 375 374.707031 L 0 374.707031 Z M 0 0 " clip-rule="nonzero"/></clipPath><clipPath id="0c1057c0a3"><path d="M 17.25 0 L 357.75 0 C 362.324219 0 366.710938 1.816406 369.949219 5.050781 C 373.183594 8.289062 375 12.675781 375 17.25 L 375 357.457031 C 375 362.035156 373.183594 366.421875 369.949219 369.65625 C 366.710938 372.890625 362.324219 374.707031 357.75 374.707031 L 17.25 374.707031 C 12.675781 374.707031 8.289062 372.890625 5.050781 369.65625 C 1.816406 366.421875 0 362.035156 0 357.457031 L 0 17.25 C 0 12.675781 1.816406 8.289062 5.050781 5.050781 C 8.289062 1.816406 12.675781 0 17.25 0 Z M 17.25 0 " clip-rule="nonzero"/></clipPath><clipPath id="2686e85b1b"><path d="M 17.25 0 L 357.75 0 C 362.324219 0 366.710938 1.816406 369.945312 5.050781 C 373.183594 8.289062 375 12.675781 375 17.25 L 375 357.457031 C 375 362.03125 373.183594 366.417969 369.945312 369.65625 C 366.710938 372.890625 362.324219 374.707031 357.75 374.707031 L 17.25 374.707031 C 12.675781 374.707031 8.289062 372.890625 5.054688 369.65625 C 1.816406 366.417969 0 362.03125 0 357.457031 L 0 17.25 C 0 12.675781 1.816406 8.289062 5.054688 5.050781 C 8.289062 1.816406 12.675781 0 17.25 0 Z M 17.25 0 " clip-rule="nonzero"/></clipPath></defs><g clip-path="url(#b7e5399e20)"><g clip-path="url(#0c1057c0a3)"><path fill="#02070f" d="M 0 0 L 374.707031 0 L 374.707031 374.707031 L 0 374.707031 Z M 0 0 " fill-opacity="1" fill-rule="nonzero"/></g></g><g clip-path="url(#2686e85b1b)"><path stroke-linecap="butt" transform="matrix(0.75, 0, 0, 0.75, 0.000617411, 0)" fill="none" stroke-linejoin="miter" d="M 22.999178 0 L 476.999208 0 C 483.098167 0 488.947126 2.421875 493.259626 6.734375 C 497.577334 11.052084 499.99921 16.901043 499.99921 23.000002 L 499.99921 476.609406 C 499.99921 482.708365 497.577334 488.557324 493.259626 492.875032 C 488.947126 497.187533 483.098167 499.609408 476.999208 499.609408 L 22.999178 499.609408 C 16.90022 499.609408 11.051261 497.187533 6.738761 492.875032 C 2.421052 488.557324 -0.000823215 482.708365 -0.000823215 476.609406 L -0.000823215 23.000002 C -0.000823215 16.901043 2.421052 11.052084 6.738761 6.734375 C 11.051261 2.421875 16.90022 0 22.999178 0 Z M 22.999178 0 " stroke="#00adef" stroke-width="14" stroke-opacity="1" stroke-miterlimit="4"/></g><g fill="#ffffff" fill-opacity="1"><g transform="translate(20.507816, 295.729104)"><g><path d="M 133.84375 -96.3125 L 133.84375 -220.453125 L 27.828125 -220.453125 L 27.828125 -171.359375 L 80.671875 -171.359375 L 80.671875 -96.3125 C 80.671875 -62.546875 63.484375 -50.03125 5.625 -50.03125 L 5.625 0 C 98.8125 0 133.84375 -26.578125 133.84375 -96.3125 Z M 133.84375 -96.3125 "/></g></g></g><g fill="#00adef" fill-opacity="1"><g transform="translate(170.613278, 295.729104)"><g><path d="M 162.296875 0.9375 L 0.9375 0.9375 L 0.9375 48.15625 L 162.296875 48.15625 Z M 162.296875 0.9375 "/></g></g></g></svg>