<?xml version="1.0" standalone="no"?>
<!DOCTYPE svg PUBLIC "-//W3C//DTD SVG 20010904//EN"
 "http://www.w3.org/TR/2001/REC-SVG-20010904/DTD/svg10.dtd">
<svg version="1.0" xmlns="http://www.w3.org/2000/svg"
 width="1563.000000pt" height="1563.000000pt" viewBox="0 0 1563.000000 1563.000000"
 preserveAspectRatio="xMidYMid meet">
<metadata>
Created by potrace 1.14, written by Peter Selinger 2001-2017
</metadata>
<g transform="translate(0.000000,1563.000000) scale(0.100000,-0.100000)"
fill="#000000" stroke="none">
<path d="M7529 15625 c-2 -2 -60 -6 -129 -9 -69 -3 -154 -7 -190 -10 -36 -3
-94 -8 -130 -11 -146 -12 -368 -40 -470 -60 -14 -3 -43 -7 -65 -10 -22 -3 -51
-7 -65 -10 -14 -3 -38 -8 -55 -10 -33 -6 -215 -42 -255 -51 -14 -3 -38 -7 -55
-10 -16 -3 -44 -10 -62 -15 -17 -6 -44 -12 -60 -15 -63 -11 -374 -99 -548
-154 -210 -67 -480 -165 -620 -225 -16 -7 -79 -34 -140 -60 -271 -116 -667
-322 -950 -495 -283 -174 -704 -474 -886 -632 -15 -13 -48 -41 -75 -63 -249
-207 -600 -549 -814 -795 -30 -34 -65 -75 -78 -89 -13 -14 -88 -105 -166 -203
-445 -553 -806 -1156 -1097 -1835 -73 -172 -225 -582 -244 -661 -3 -9 -23 -75
-45 -147 -22 -71 -48 -157 -56 -190 -9 -33 -22 -85 -30 -115 -51 -197 -119
-522 -139 -670 -4 -24 -8 -47 -10 -50 -1 -3 -6 -30 -9 -61 -4 -31 -8 -65 -10
-75 -2 -11 -7 -44 -10 -74 -4 -30 -9 -71 -12 -90 -2 -19 -6 -53 -9 -75 -3 -22
-7 -76 -11 -120 -3 -44 -7 -96 -10 -115 -26 -218 -25 -984 2 -1235 2 -22 6
-65 8 -96 3 -30 7 -75 11 -100 3 -24 7 -64 10 -89 2 -25 9 -81 15 -125 6 -44
13 -93 15 -110 2 -16 14 -84 25 -150 11 -66 23 -131 25 -145 2 -14 9 -50 15
-80 6 -30 13 -66 16 -80 63 -324 222 -857 368 -1228 31 -79 56 -145 56 -147 0
-2 30 -70 66 -152 593 -1340 1496 -2440 2694 -3280 113 -79 427 -283 436 -283
2 0 40 -23 84 -50 44 -28 82 -50 84 -50 2 0 48 -25 102 -56 142 -80 513 -261
694 -337 387 -164 880 -327 1210 -402 260 -59 331 -75 360 -80 19 -3 53 -10
75 -15 22 -5 58 -11 80 -14 22 -4 65 -11 95 -16 136 -24 455 -62 630 -75 343
-27 1006 -26 1255 0 22 3 69 7 105 10 36 3 76 8 90 10 14 2 54 7 90 10 36 3
72 8 80 10 8 2 40 7 70 10 66 8 72 8 225 34 100 17 199 37 435 87 14 2 33 7
42 10 10 3 28 7 40 10 41 7 351 91 438 118 47 14 92 28 101 30 24 6 261 87
284 97 11 4 88 34 170 64 83 31 164 63 180 70 17 7 103 45 192 84 449 197 855
428 1343 766 75 52 276 201 290 215 3 3 48 39 100 81 106 85 164 134 195 164
12 11 50 45 85 75 215 184 543 519 755 770 44 52 84 100 90 106 5 6 37 46 70
89 33 42 78 100 101 129 104 131 308 425 436 631 67 108 104 171 207 355 39
70 220 430 245 490 11 25 36 81 56 125 21 44 61 141 90 215 28 74 61 158 72
185 24 57 134 377 153 445 7 25 24 84 38 131 14 47 44 157 67 245 37 148 44
174 55 230 35 163 47 225 51 254 2 19 6 42 9 50 2 8 7 31 10 50 3 19 10 60 15
90 5 30 12 75 15 100 3 25 8 63 12 85 8 47 8 48 18 145 4 41 9 84 11 95 2 11
6 52 10 90 3 39 7 86 9 105 12 115 20 365 20 640 -1 279 -5 404 -19 585 -3 28
-7 86 -10 130 -4 44 -8 90 -10 102 -3 12 -8 53 -11 90 -4 37 -8 75 -10 83 -3
8 -7 42 -11 75 -3 33 -7 62 -9 65 -2 3 -6 33 -10 65 -3 33 -9 68 -11 77 -3 9
-13 65 -24 125 -33 190 -96 466 -150 658 -17 61 -38 133 -46 162 -19 69 -115
357 -152 458 -181 493 -414 971 -691 1421 -57 94 -237 366 -263 399 -5 6 -57
75 -116 155 -93 126 -216 285 -232 300 -3 3 -41 48 -85 100 -44 52 -89 105
-100 116 -11 12 -54 59 -95 104 -174 192 -516 522 -673 650 -17 14 -60 50 -96
81 -237 202 -639 488 -956 679 -261 158 -645 356 -900 465 -60 25 -119 50
-130 55 -11 5 -56 23 -100 40 -44 17 -89 35 -100 40 -168 77 -863 287 -1110
336 -11 2 -31 6 -45 9 -68 15 -165 34 -205 41 -47 8 -78 13 -100 18 -11 2 -40
7 -65 11 -25 4 -52 9 -60 10 -27 5 -94 14 -140 20 -25 3 -54 7 -65 9 -11 2
-49 7 -85 11 -84 8 -137 14 -180 20 -32 4 -129 12 -255 21 -69 5 -772 14 -776
9z"/>
</g>
</svg>
